<svg width="321" height="450" viewBox="0 0 321 450" fill="none" xmlns="http://www.w3.org/2000/svg">
<path d="M205.28 284H209.24V408.84C209.24 416.52 207.92 423 205.28 428.28C202.4 433.32 198.8 437.52 194.48 440.88C189.92 444 185 446.28 179.72 447.72C174.2 449.16 168.68 449.88 163.16 449.88H161V326.12V284H205.28Z" fill="#1E1E1E"/>
<path d="M116.96 285.5H113V408.84C113 416.52 114.32 423 116.96 428.28C119.84 433.32 123.44 437.52 127.76 440.88C132.32 444 137.24 446.28 142.52 447.72C148.04 449.16 153.56 449.88 159.08 449.88H161.24V327.62V285.5L116.96 285.5Z" fill="black"/>
<path fill-rule="evenodd" clip-rule="evenodd" d="M160.5 69.5C110.242 69.5 69.5 110.242 69.5 160.5V415.5C69.5 434.554 54.0538 450 35 450C15.9462 450 0.5 434.554 0.5 415.5V160.5C0.5 72.1344 72.1344 0.5 160.5 0.5C248.866 0.5 320.5 72.1344 320.5 160.5C320.5 248.866 248.866 320.5 160.5 320.5H147C127.946 320.5 112.5 305.054 112.5 286C112.5 266.946 127.946 251.5 147 251.5H160.5C210.758 251.5 251.5 210.758 251.5 160.5C251.5 110.242 210.758 69.5 160.5 69.5Z" fill="white"/>
<circle cx="160.5" cy="160.5" r="48.5" fill="black"/>
</svg>
